<mxfile host="app.diagrams.net" agent="Mozilla/5.0 (Windows NT 10.0; Win64; x64) AppleWebKit/537.36 (KHTML, like Gecko) Chrome/140.0.0.0 Safari/537.36 Edg/140.0.0.0" version="28.2.0">
  <diagram name="Page-1" id="3BDRE6AaMkSYcJkK8fbE">
    <mxGraphModel dx="1895" dy="1044" grid="1" gridSize="10" guides="1" tooltips="1" connect="1" arrows="1" fold="1" page="1" pageScale="1" pageWidth="850" pageHeight="1100" math="0" shadow="0">
      <root>
        <mxCell id="0" />
        <mxCell id="1" parent="0" />
        <mxCell id="qalH_pREs73c3BO6F5_Z-4" value="" style="edgeStyle=orthogonalEdgeStyle;rounded=0;orthogonalLoop=1;jettySize=auto;html=1;" edge="1" parent="1" source="qalH_pREs73c3BO6F5_Z-1" target="qalH_pREs73c3BO6F5_Z-3">
          <mxGeometry relative="1" as="geometry" />
        </mxCell>
        <mxCell id="qalH_pREs73c3BO6F5_Z-42" value="" style="edgeStyle=orthogonalEdgeStyle;rounded=0;orthogonalLoop=1;jettySize=auto;html=1;" edge="1" parent="1" source="qalH_pREs73c3BO6F5_Z-1" target="qalH_pREs73c3BO6F5_Z-41">
          <mxGeometry relative="1" as="geometry" />
        </mxCell>
        <mxCell id="qalH_pREs73c3BO6F5_Z-1" value="&lt;font style=&quot;font-size: 18px;&quot;&gt;Start&lt;/font&gt;" style="ellipse;whiteSpace=wrap;html=1;fillColor=#60a917;fontColor=#ffffff;strokeColor=#2D7600;" vertex="1" parent="1">
          <mxGeometry x="180" y="30" width="120" height="80" as="geometry" />
        </mxCell>
        <mxCell id="qalH_pREs73c3BO6F5_Z-9" value="" style="edgeStyle=orthogonalEdgeStyle;rounded=0;orthogonalLoop=1;jettySize=auto;html=1;" edge="1" parent="1" source="qalH_pREs73c3BO6F5_Z-3" target="qalH_pREs73c3BO6F5_Z-8">
          <mxGeometry relative="1" as="geometry" />
        </mxCell>
        <mxCell id="qalH_pREs73c3BO6F5_Z-3" value="&lt;font style=&quot;font-size: 18px;&quot;&gt;Select the address&lt;/font&gt;" style="rounded=0;whiteSpace=wrap;html=1;fillColor=#6d8764;fontColor=#ffffff;strokeColor=#3A5431;" vertex="1" parent="1">
          <mxGeometry x="150" y="280" width="180" height="60" as="geometry" />
        </mxCell>
        <mxCell id="qalH_pREs73c3BO6F5_Z-39" value="" style="edgeStyle=orthogonalEdgeStyle;rounded=0;orthogonalLoop=1;jettySize=auto;html=1;" edge="1" parent="1" source="qalH_pREs73c3BO6F5_Z-5" target="qalH_pREs73c3BO6F5_Z-38">
          <mxGeometry relative="1" as="geometry" />
        </mxCell>
        <mxCell id="qalH_pREs73c3BO6F5_Z-5" value="&lt;div&gt;&lt;font style=&quot;font-size: 18px;&quot;&gt;Restaurant&lt;/font&gt;&lt;/div&gt;&lt;div&gt;&lt;font size=&quot;3&quot;&gt;Open?&lt;/font&gt;&lt;/div&gt;" style="rhombus;whiteSpace=wrap;html=1;fillColor=#76608a;fontColor=#ffffff;strokeColor=#432D57;" vertex="1" parent="1">
          <mxGeometry x="430" y="345" width="140" height="130" as="geometry" />
        </mxCell>
        <mxCell id="qalH_pREs73c3BO6F5_Z-11" value="" style="edgeStyle=orthogonalEdgeStyle;rounded=0;orthogonalLoop=1;jettySize=auto;html=1;" edge="1" parent="1" source="qalH_pREs73c3BO6F5_Z-8" target="qalH_pREs73c3BO6F5_Z-5">
          <mxGeometry relative="1" as="geometry" />
        </mxCell>
        <mxCell id="qalH_pREs73c3BO6F5_Z-8" value="&lt;font style=&quot;font-size: 18px;&quot;&gt;Browse Restaurants&lt;/font&gt;" style="rounded=0;whiteSpace=wrap;html=1;fillColor=#6d8764;fontColor=#ffffff;strokeColor=#3A5431;" vertex="1" parent="1">
          <mxGeometry x="150" y="380" width="180" height="60" as="geometry" />
        </mxCell>
        <mxCell id="qalH_pREs73c3BO6F5_Z-17" value="" style="edgeStyle=orthogonalEdgeStyle;rounded=0;orthogonalLoop=1;jettySize=auto;html=1;" edge="1" parent="1" source="qalH_pREs73c3BO6F5_Z-12" target="qalH_pREs73c3BO6F5_Z-16">
          <mxGeometry relative="1" as="geometry" />
        </mxCell>
        <mxCell id="qalH_pREs73c3BO6F5_Z-12" value="&lt;font style=&quot;font-size: 18px;&quot;&gt;View menu &amp;amp; Add items&lt;/font&gt;" style="rounded=0;whiteSpace=wrap;html=1;fillColor=#a0522d;fontColor=#ffffff;strokeColor=#6D1F00;" vertex="1" parent="1">
          <mxGeometry x="150" y="520" width="150" height="70" as="geometry" />
        </mxCell>
        <mxCell id="qalH_pREs73c3BO6F5_Z-15" value="" style="endArrow=classic;html=1;rounded=0;entryX=1;entryY=0.5;entryDx=0;entryDy=0;exitX=0.5;exitY=1;exitDx=0;exitDy=0;" edge="1" parent="1" source="qalH_pREs73c3BO6F5_Z-5" target="qalH_pREs73c3BO6F5_Z-12">
          <mxGeometry width="50" height="50" relative="1" as="geometry">
            <mxPoint x="440" y="620" as="sourcePoint" />
            <mxPoint x="490" y="570" as="targetPoint" />
            <Array as="points">
              <mxPoint x="500" y="555" />
            </Array>
          </mxGeometry>
        </mxCell>
        <mxCell id="qalH_pREs73c3BO6F5_Z-19" value="" style="edgeStyle=orthogonalEdgeStyle;rounded=0;orthogonalLoop=1;jettySize=auto;html=1;" edge="1" parent="1" source="qalH_pREs73c3BO6F5_Z-16" target="qalH_pREs73c3BO6F5_Z-18">
          <mxGeometry relative="1" as="geometry" />
        </mxCell>
        <mxCell id="qalH_pREs73c3BO6F5_Z-16" value="&lt;font style=&quot;font-size: 18px;&quot;&gt;Proceed to checkout&lt;/font&gt;" style="rhombus;whiteSpace=wrap;html=1;fillColor=#fad7ac;strokeColor=#b46504;" vertex="1" parent="1">
          <mxGeometry x="160" y="660" width="130" height="110" as="geometry" />
        </mxCell>
        <mxCell id="qalH_pREs73c3BO6F5_Z-21" value="" style="edgeStyle=orthogonalEdgeStyle;rounded=0;orthogonalLoop=1;jettySize=auto;html=1;" edge="1" parent="1" source="qalH_pREs73c3BO6F5_Z-18" target="qalH_pREs73c3BO6F5_Z-20">
          <mxGeometry relative="1" as="geometry" />
        </mxCell>
        <mxCell id="qalH_pREs73c3BO6F5_Z-18" value="&lt;font style=&quot;font-size: 18px;&quot;&gt;Select&amp;nbsp;&lt;/font&gt;&lt;div&gt;&lt;font style=&quot;font-size: 18px;&quot;&gt;payment method&lt;/font&gt;&lt;/div&gt;" style="rhombus;whiteSpace=wrap;html=1;fillColor=#fad7ac;strokeColor=#b46504;" vertex="1" parent="1">
          <mxGeometry x="370" y="655" width="130" height="120" as="geometry" />
        </mxCell>
        <mxCell id="qalH_pREs73c3BO6F5_Z-25" value="" style="edgeStyle=orthogonalEdgeStyle;rounded=0;orthogonalLoop=1;jettySize=auto;html=1;" edge="1" parent="1" source="qalH_pREs73c3BO6F5_Z-20" target="qalH_pREs73c3BO6F5_Z-24">
          <mxGeometry relative="1" as="geometry" />
        </mxCell>
        <mxCell id="qalH_pREs73c3BO6F5_Z-28" value="" style="edgeStyle=orthogonalEdgeStyle;rounded=0;orthogonalLoop=1;jettySize=auto;html=1;" edge="1" parent="1" source="qalH_pREs73c3BO6F5_Z-20" target="qalH_pREs73c3BO6F5_Z-27">
          <mxGeometry relative="1" as="geometry" />
        </mxCell>
        <mxCell id="qalH_pREs73c3BO6F5_Z-36" value="" style="edgeStyle=orthogonalEdgeStyle;rounded=0;orthogonalLoop=1;jettySize=auto;html=1;" edge="1" parent="1" source="qalH_pREs73c3BO6F5_Z-20" target="qalH_pREs73c3BO6F5_Z-35">
          <mxGeometry relative="1" as="geometry" />
        </mxCell>
        <mxCell id="qalH_pREs73c3BO6F5_Z-20" value="&lt;font style=&quot;font-size: 18px;&quot;&gt;Place order&lt;/font&gt;" style="rounded=0;whiteSpace=wrap;html=1;fillColor=#b1ddf0;strokeColor=#10739e;" vertex="1" parent="1">
          <mxGeometry x="362.5" y="830" width="145" height="60" as="geometry" />
        </mxCell>
        <mxCell id="qalH_pREs73c3BO6F5_Z-24" value="&lt;font style=&quot;font-size: 18px;&quot;&gt;Display Order Confirmation &amp;amp;Tracking&lt;/font&gt;" style="shape=parallelogram;perimeter=parallelogramPerimeter;whiteSpace=wrap;html=1;fixedSize=1;rounded=0;fillColor=#e6d0de;gradientColor=#d5739d;strokeColor=#996185;" vertex="1" parent="1">
          <mxGeometry x="110" y="810" width="170" height="100" as="geometry" />
        </mxCell>
        <mxCell id="qalH_pREs73c3BO6F5_Z-26" value="YES" style="text;html=1;align=center;verticalAlign=middle;resizable=0;points=[];autosize=1;strokeColor=none;fillColor=none;" vertex="1" parent="1">
          <mxGeometry x="295" y="828" width="50" height="30" as="geometry" />
        </mxCell>
        <mxCell id="qalH_pREs73c3BO6F5_Z-27" value="&lt;div&gt;&lt;font style=&quot;font-size: 18px;&quot;&gt;Display Payment&lt;/font&gt;&lt;/div&gt;&lt;div&gt;&lt;font size=&quot;3&quot;&gt;Failed&lt;/font&gt;&lt;/div&gt;&lt;div&gt;&lt;font size=&quot;3&quot;&gt;Message&lt;/font&gt;&lt;/div&gt;" style="shape=parallelogram;perimeter=parallelogramPerimeter;whiteSpace=wrap;html=1;fixedSize=1;rounded=0;fillColor=#f8cecc;strokeColor=#b85450;gradientColor=#ea6b66;" vertex="1" parent="1">
          <mxGeometry x="560" y="810" width="180" height="100" as="geometry" />
        </mxCell>
        <mxCell id="qalH_pREs73c3BO6F5_Z-31" value="YES" style="text;html=1;align=center;verticalAlign=middle;resizable=0;points=[];autosize=1;strokeColor=none;fillColor=none;" vertex="1" parent="1">
          <mxGeometry x="415" y="518" width="50" height="30" as="geometry" />
        </mxCell>
        <mxCell id="qalH_pREs73c3BO6F5_Z-35" value="&lt;font style=&quot;font-size: 18px;&quot;&gt;END&lt;/font&gt;" style="ellipse;whiteSpace=wrap;html=1;fillColor=#d5e8d4;gradientColor=#97d077;strokeColor=#82b366;" vertex="1" parent="1">
          <mxGeometry x="375" y="950" width="120" height="80" as="geometry" />
        </mxCell>
        <mxCell id="qalH_pREs73c3BO6F5_Z-37" value="NO" style="text;html=1;align=center;verticalAlign=middle;resizable=0;points=[];autosize=1;strokeColor=none;fillColor=none;" vertex="1" parent="1">
          <mxGeometry x="520" y="828" width="40" height="30" as="geometry" />
        </mxCell>
        <mxCell id="qalH_pREs73c3BO6F5_Z-38" value="&lt;font style=&quot;font-size: 18px;&quot;&gt;Display Restaurants are not available&lt;/font&gt;" style="shape=parallelogram;perimeter=parallelogramPerimeter;whiteSpace=wrap;html=1;fixedSize=1;fillColor=#a0522d;fontColor=#ffffff;strokeColor=#6D1F00;" vertex="1" parent="1">
          <mxGeometry x="580" y="500" width="160" height="85" as="geometry" />
        </mxCell>
        <mxCell id="qalH_pREs73c3BO6F5_Z-40" value="NO" style="text;html=1;align=center;verticalAlign=middle;resizable=0;points=[];autosize=1;strokeColor=none;fillColor=none;" vertex="1" parent="1">
          <mxGeometry x="590" y="378" width="40" height="30" as="geometry" />
        </mxCell>
        <mxCell id="qalH_pREs73c3BO6F5_Z-47" value="" style="edgeStyle=orthogonalEdgeStyle;rounded=0;orthogonalLoop=1;jettySize=auto;html=1;" edge="1" parent="1" source="qalH_pREs73c3BO6F5_Z-41" target="qalH_pREs73c3BO6F5_Z-46">
          <mxGeometry relative="1" as="geometry" />
        </mxCell>
        <mxCell id="qalH_pREs73c3BO6F5_Z-41" value="&lt;font style=&quot;font-size: 18px;&quot;&gt;Login&lt;/font&gt;" style="whiteSpace=wrap;html=1;fillColor=#fa6800;fontColor=#000000;strokeColor=#C73500;" vertex="1" parent="1">
          <mxGeometry x="180" y="158" width="120" height="60" as="geometry" />
        </mxCell>
        <mxCell id="qalH_pREs73c3BO6F5_Z-52" value="" style="edgeStyle=orthogonalEdgeStyle;rounded=0;orthogonalLoop=1;jettySize=auto;html=1;" edge="1" parent="1" source="qalH_pREs73c3BO6F5_Z-46" target="qalH_pREs73c3BO6F5_Z-51">
          <mxGeometry relative="1" as="geometry" />
        </mxCell>
        <mxCell id="qalH_pREs73c3BO6F5_Z-46" value="&lt;font style=&quot;font-size: 18px;&quot;&gt;Sign Up&lt;/font&gt;" style="whiteSpace=wrap;html=1;fillColor=#e3c800;fontColor=#000000;strokeColor=#B09500;" vertex="1" parent="1">
          <mxGeometry x="400" y="158" width="120" height="60" as="geometry" />
        </mxCell>
        <mxCell id="qalH_pREs73c3BO6F5_Z-49" value="YES" style="text;html=1;align=center;verticalAlign=middle;resizable=0;points=[];autosize=1;strokeColor=none;fillColor=none;" vertex="1" parent="1">
          <mxGeometry x="240" y="230" width="50" height="30" as="geometry" />
        </mxCell>
        <mxCell id="qalH_pREs73c3BO6F5_Z-50" value="NO" style="text;html=1;align=center;verticalAlign=middle;resizable=0;points=[];autosize=1;strokeColor=none;fillColor=none;" vertex="1" parent="1">
          <mxGeometry x="322.5" y="158" width="40" height="30" as="geometry" />
        </mxCell>
        <mxCell id="qalH_pREs73c3BO6F5_Z-51" value="&lt;font style=&quot;font-size: 18px;&quot;&gt;Register &amp;amp; Save Details&lt;/font&gt;" style="whiteSpace=wrap;html=1;fillColor=#f0a30a;fontColor=#000000;strokeColor=#BD7000;" vertex="1" parent="1">
          <mxGeometry x="600" y="158" width="120" height="60" as="geometry" />
        </mxCell>
        <mxCell id="qalH_pREs73c3BO6F5_Z-53" value="" style="endArrow=classic;html=1;rounded=0;entryX=1;entryY=0.5;entryDx=0;entryDy=0;exitX=0.5;exitY=1;exitDx=0;exitDy=0;" edge="1" parent="1" source="qalH_pREs73c3BO6F5_Z-51" target="qalH_pREs73c3BO6F5_Z-3">
          <mxGeometry width="50" height="50" relative="1" as="geometry">
            <mxPoint x="550" y="220" as="sourcePoint" />
            <mxPoint x="530" y="380" as="targetPoint" />
            <Array as="points">
              <mxPoint x="660" y="310" />
            </Array>
          </mxGeometry>
        </mxCell>
        <mxCell id="qalH_pREs73c3BO6F5_Z-54" value="YES" style="text;html=1;align=center;verticalAlign=middle;resizable=0;points=[];autosize=1;strokeColor=none;fillColor=none;" vertex="1" parent="1">
          <mxGeometry x="610" y="280" width="50" height="30" as="geometry" />
        </mxCell>
      </root>
    </mxGraphModel>
  </diagram>
</mxfile>
